#!OML:ASF I:\Actors\actors\Patient Classification 2\Patient 1\Session 1\actor1.ASF
:FULLY-SPECIFIED
:DEGREES
573
root -0.812456 18.8264 4.91083 6.01559 -1.08379 -1.56509
lowerback 11.4717 0.95893 -1.29169
upperback 6.67218 1.14599 0.899951
thorax 0.488325 0.519327 1.53479
lowerneck -18.2338 -2.32778 -2.63842
upperneck 25.0612 -2.93303 1.64582
head 11.2161 -1.36674 0.609537
rclavicle 8.10669e-016 5.8393e-015
rhumerus 5.95896 29.0489 -79.0436
rradius 67.537
rwrist 13.4845
rhand -26.2958 -32.097
rfingers 7.12502
rthumb 0.26009 297.923
lclavicle 8.10669e-016 5.8393e-015
lhumerus 10.6794 -28.7432 88.5666
lradius 61.5651
lwrist -0.0996228
lhand -28.4538 -66.1865
lfingers 7.12502
lthumb -1.82421 -36.2145
rfemur 0 0 0
rtibia 0
rfoot 0 0
rtoes 0
lfemur -11.8907 -6.69579 -11.4299
ltibia 21.5124
lfoot -20.2772 16.992
ltoes -54.3275
574
root -0.809516 18.8254 4.92566 5.98861 -1.07675 -1.59431
lowerback 11.292 0.923439 -1.18297
upperback 6.48986 1.11147 0.87343
thorax 0.39801 0.507472 1.45055
lowerneck -18.23 -2.28859 -2.29406
upperneck 25.0596 -2.8928 1.32063
head 11.2021 -1.35701 0.439057
rclavicle -6.3052e-015 -3.09359e-015
rhumerus 5.3396 28.7296 -80.0632
rradius 67.5785
rwrist 13.2028
rhand -26.2865 -32.4852
rfingers 7.12502
rthumb 0.269012 297.535
lclavicle -6.3052e-015 -3.09359e-015
lhumerus 9.90101 -28.2008 89.665
lradius 61.6396
lwrist -0.0122337
lhand -28.5238 -65.998
lfingers 7.12502
lthumb -1.89178 -36.0266
rfemur 0 0 0
rtibia 0
rfoot 0 0
rtoes 0
lfemur -11.8197 -6.71963 -11.4208
ltibia 21.5244
lfoot -20.3492 17.0158
ltoes -54.4446
575
root -0.807984 18.8243 4.94034 6.01298 -1.16041 -1.61502
lowerback 11.0508 0.934815 -1.11483
upperback 6.27538 1.13501 0.826087
thorax 0.305513 0.523823 1.36187
lowerneck -18.3109 -2.27444 -2.23844
upperneck 25.1938 -2.901 1.35537
head 11.2683 -1.35032 0.440046
rclavicle -5.39203e-015 -5.59082e-017
rhumerus 4.72772 28.6559 -81.0622
rradius 67.5273
rwrist 11.9615
rhand -27.2157 -32.6333
rfingers 7.12502
rthumb -0.628453 297.388
lclavicle -5.39203e-015 -5.59082e-017
lhumerus 9.10964 -27.7731 90.6589
lradius 61.701
lwrist 0.143564
lhand -28.6366 -65.9066
lfingers 7.12502
lthumb -2.0007 -35.9363
rfemur 0 0 0
rtibia 0
rfoot 0 0
rtoes 0
lfemur -11.7675 -6.72411 -11.4213
ltibia 21.529
lfoot -20.4633 17.0453
ltoes -54.3943
576
root -0.807088 18.8223 4.957 5.99168 -1.31468 -1.59841
lowerback 10.7851 0.969246 -1.17322
upperback 6.08936 1.17776 0.809806
thorax 0.25324 0.545542 1.3753
lowerneck -18.4121 -2.27818 -2.41347
upperneck 25.3845 -2.90184 1.52507
head 11.3665 -1.34509 0.530187
rclavicle -2.15868e-015 -3.68994e-015
rhumerus 4.07597 29.2408 -81.8775
rradius 67.5525
rwrist 8.90396
rhand -29.7325 -32.9344
rfingers 7.12502
rthumb -3.05911 297.108
lclavicle -2.15868e-015 -3.68994e-015
lhumerus 8.36394 -27.3237 91.6139
lradius 61.75
lwrist 0.355203
lhand -28.6693 -65.7194
lfingers 7.12502
lthumb -2.03233 -35.7493
rfemur 0 0 0
rtibia 0
rfoot 0 0
rtoes 0
lfemur -11.6406 -6.68903 -11.4773
ltibia 21.539
lfoot -20.5951 17.0809
ltoes -54.3452
577
root -0.804278 18.8192 4.97373 5.91132 -1.38009 -1.55114
lowerback 10.542 0.967712 -1.23049
upperback 5.96362 1.17349 0.813191
thorax 0.25313 0.542903 1.41375
lowerneck -18.4891 -2.27434 -2.52745
upperneck 25.4772 -2.88267 1.60027
head 11.4198 -1.33742 0.579063
rclavicle -1.21911e-014 5.34234e-015
rhumerus 3.66537 28.5443 -82.6968
rradius 67.4588
rwrist 10.658
rhand -26.1355 -34.8583
rfingers 7.12502
rthumb 0.414845 295.162
lclavicle -1.21911e-014 5.34234e-015
lhumerus 7.73338 -26.8429 92.5234
lradius 61.8003
lwrist 0.49733
lhand -28.7377 -65.5377
lfingers 7.12502
lthumb -2.09839 -35.5683
rfemur 0 0 0
rtibia 0
rfoot 0 0
rtoes 0
lfemur -11.4836 -6.60125 -11.5731
ltibia 21.5473
lfoot -20.6025 17.0856
ltoes -54.521
578
root -0.799954 18.8157 4.98816 5.80372 -1.3817 -1.52776
lowerback 10.3415 0.944841 -1.19058
upperback 5.85714 1.14907 0.799678
thorax 0.252854 0.53265 1.38166
lowerneck -18.6041 -2.27201 -2.581
upperneck 25.6061 -2.88374 1.67367
head 11.4939 -1.33284 0.613787
rclavicle 1.59587e-014 -2.15557e-015
rhumerus 3.14505 28.5207 -83.4622
rradius 67.5687
rwrist 9.72546
rhand -27.683 -32.7916
rfingers 7.12502
rthumb -1.07976 297.231
lclavicle 1.59587e-014 -2.15557e-015
lhumerus 7.1066 -26.4037 93.3478
lradius 61.9423
lwrist 0.580687
lhand -28.8974 -65.2005
lfingers 7.12502
lthumb -2.25262 -35.2327
rfemur 0 0 0
rtibia 0
rfoot 0 0
rtoes 0
lfemur -11.3156 -6.57421 -11.6378
ltibia 21.5488
lfoot -20.6218 17.0672
ltoes -54.6107
579
root -0.796715 18.8131 5.0006 5.69148 -1.38982 -1.52546
lowerback 10.2046 0.91362 -1.14805
upperback 5.74543 1.11295 0.782874
thorax 0.213173 0.516889 1.34482
lowerneck -18.7491 -2.256 -2.52526
upperneck 25.7816 -2.85651 1.59646
head 11.5868 -1.32393 0.578711
rclavicle -1.15544e-015 7.78987e-015
rhumerus 2.53976 28.6287 -84.2525
rradius 67.8163
rwrist 8.43253
rhand -29.1882 -32.5612
rfingers 7.12502
rthumb -2.53349 297.474
lclavicle -1.15544e-015 7.78987e-015
lhumerus 6.45315 -25.9206 94.0914
lradius 62.2545
lwrist 0.888028
lhand -28.8406 -64.6783
lfingers 7.12502
lthumb -2.19776 -34.7099
rfemur 0 0 0
rtibia 0
rfoot 0 0
rtoes 0
lfemur -11.1469 -6.63962 -11.6709
ltibia 21.5602
lfoot -20.7243 17.0704
ltoes -54.5423
580
root -0.794196 18.8107 5.01193 5.58029 -1.40205 -1.50216
lowerback 10.1314 0.875686 -1.14717
upperback 5.62373 1.06369 0.765992
thorax 0.128241 0.493934 1.33159
lowerneck -18.7743 -2.2096 -2.3746
upperneck 25.8486 -2.78222 1.39853
head 11.6098 -1.30129 0.491342
rclavicle -5.87657e-015 -5.71506e-015
rhumerus 1.93932 28.4788 -85.1103
rradius 68.0692
rwrist 8.03815
rhand -29.1829 -32.7774
rfingers 7.12502
rthumb -2.52831 297.258
lclavicle -5.87657e-015 -5.71506e-015
lhumerus 5.74436 -25.3763 94.8088
lradius 62.7052
lwrist 1.42071
lhand -28.6833 -64.2125
lfingers 7.12502
lthumb -2.04583 -34.2425
rfemur 0 0 0
rtibia 0
rfoot 0 0
rtoes 0
lfemur -10.9865 -6.72286 -11.726
ltibia 21.5782
lfoot -20.8481 17.0688
ltoes -54.4158
581
root -0.790279 18.8078 5.02102 5.47165 -1.40057 -1.48153
lowerback 10.0167 0.849183 -1.14147
upperback 5.54013 1.03064 0.782017
thorax 0.104578 0.478074 1.34896
lowerneck -18.6739 -2.18186 -2.29962
upperneck 25.8182 -2.72692 1.25406
head 11.5734 -1.28862 0.434837
rclavicle 1.09611e-014 6.17475e-015
rhumerus 1.29113 28.2197 -85.9025
rradius 68.5116
rwrist 7.7909
rhand -27.9471 -33.7745
rfingers 7.12502
rthumb -1.33483 296.25
lclavicle 1.09611e-014 6.17475e-015
lhumerus 4.97194 -24.8786 95.5509
lradius 63.3018
lwrist 1.7701
lhand -28.9186 -63.7453
lfingers 7.12502
lthumb -2.27306 -33.7777
rfemur 0 0 0
rtibia 0
rfoot 0 0
rtoes 0
lfemur -10.8369 -6.71662 -11.7811
ltibia 21.5797
lfoot -20.8928 17.0186
ltoes -54.3184
582
root -0.787688 18.8057 5.02692 5.41927 -1.35586 -1.4643
lowerback 9.9456 0.806883 -1.09085
upperback 5.40174 0.979741 0.758187
thorax 0.0021812 0.455648 1.30055
lowerneck -18.4684 -2.15043 -2.18939
upperneck 25.7898 -2.69561 1.16327
head 11.5178 -1.27685 0.389574
rclavicle -7.85199e-015 1.63997e-015
rhumerus 0.388369 27.9139 -86.861
rradius 69.1702
rwrist 7.71577
rhand -24.5628 -36.3667
rfingers 7.12502
rthumb 1.9338 293.662
lclavicle -7.85199e-015 1.63997e-015
lhumerus 4.01768 -24.4025 96.2553
lradius 64.1056
lwrist 1.81938
lhand -29.3434 -63.176
lfingers 7.12502
lthumb -2.68331 -33.2131
rfemur 0 0 0
rtibia 0
rfoot 0 0
rtoes 0
lfemur -10.7715 -6.51571 -11.814
ltibia 21.5675
lfoot -20.7584 16.8778
ltoes -54.4476
583
root -0.787976 18.8042 5.03158 5.36515 -1.29405 -1.42291
lowerback 9.92735 0.753851 -1.08604
upperback 5.2859 0.909876 0.701373
thorax -0.105172 0.423067 1.24529
lowerneck -18.3082 -2.11945 -2.08508
upperneck 25.8067 -2.70039 1.20271
head 11.4914 -1.26478 0.387243
rclavicle -4.36084e-015 2.98177e-016
rhumerus -0.49976 27.3271 -87.9228
rradius 69.828
rwrist 8.68186
rhand -24.0312 -36.5282
rfingers 7.12502
rthumb 2.4472 293.506
lclavicle -4.36084e-015 2.98177e-016
lhumerus 3.05707 -23.7721 96.9292
lradius 64.9154
lwrist 1.56423
lhand -29.6155 -62.6157
lfingers 7.12502
lthumb -2.94614 -32.6563
rfemur 0 0 0
rtibia 0
rfoot 0 0
rtoes 0
lfemur -10.7066 -6.36828 -11.8634
ltibia 21.5539
lfoot -20.6621 16.7319
ltoes -54.5958
